<svg xmlns="http://www.w3.org/2000/svg" viewBox="0 0 39.5 35" xmlns:v="https://vecta.io/nano"><path d="M18.5 4.6c0 1.6-1.3 2.8-2.8 2.8-1.6 0-2.8-1.3-2.8-2.8 0-1.6 1.3-2.9 2.8-2.9 1.6.1 2.8 1.4 2.8 2.9z" fill="#eb80a8"/><path d="M18.1 3.5c.1.2.1.5.1.7 0 1.5-1.2 2.6-2.6 2.6-1.1 0-2-.6-2.4-1.6a2.58 2.58 0 0 0 2.5 1.9c1.5 0 2.6-1.2 2.6-2.6 0-.3-.1-.6-.2-1z" fill="#f6b4ca"/><path d="M39.5.2s-.2 22.8-23 21.6c1-8.8 3.1-12 3.1-12L30 1.3" fill="#fbd9e3"/><path d="M39.5.2s-19.7 3.2-23 21.5c0 .1-3.3-24.2 23-21.5z" fill="#eb80a8"/><path d="M17.4 13.1S20.5 1.2 33.2.8c0 .1-11 .8-15.8 12.3z" fill="#f6b4ca"/><path d="M17.1 21.4s12.6-.4 16.5-8.2c-.1 0-9.3 7.3-16.5 8.2z" fill="#fdebf1"/><path d="M.1 4.9S-2 22 15.2 21.3c.1-6.6-1.1-9.1-1.1-9.1l-7-6.4" fill="#fbd9e3"/><path d="M.1 4.9s14.5 2.5 15.1 16.4c0 .1 5-18.2-15.1-16.4z" fill="#eb80a8"/><path d="M7.4 5.8s6.6 1.7 7.9 9.1c0 0-1.4-5.2-7.9-9.1z" fill="#f6b4ca"/><path d="M14.5 20.9s-8.2-.3-10-5.5c.1.1 5.5 4.9 10 5.5z" fill="#fdebf1"/><path d="M15.2 22.7S1.7 20.9.5 34.5c5.3.2 7.4-.8 7.4-.8l5.9-5.5" fill="#cae4ec"/><path d="M15.2 22.7S11.6 34.2.5 34.5c-.1 0 14 4.1 14.7-11.8z" fill="#0091b3"/><path d="M6 34.6s5.7-.4 8.2-6.9c.1-.1-3.4 5.9-8.2 6.9z" fill="#8ac7d8"/><path d="M14.3 22.9s-6.7.4-8.6 4.5c.1 0 4.9-4 8.6-4.5z" fill="#e7f3f6"/><path d="M24.6 33.3s2-10.2-8.3-10.5c-.4 4 .3 5.5.3 5.5l3.9 4.2" fill="#ddf0b4"/><path d="M24.6 33.3s-8.5-2.1-8.3-10.5c0-.1-3.7 10.7 8.3 10.5z" fill="#93d500"/><path d="M16.2 27.3s.5 4.6 5.9 5.8c0 0-5-2-5.9-5.8z" fill="#c3e67e"/><path d="M17.1 23.2s4.3.5 5 3.3c0 0-2.6-2.8-5-3.3z" fill="#f0f8de"/></svg>