<svg xmlns="http://www.w3.org/2000/svg" viewBox="0 0 189.1 35" xmlns:v="https://vecta.io/nano"><path d="M18.5 4.6c0 1.6-1.3 2.8-2.8 2.8-1.6 0-2.8-1.3-2.8-2.8 0-1.6 1.3-2.9 2.8-2.9 1.6.1 2.8 1.4 2.8 2.9z" fill="#eb80a8"/><path d="M18.1 3.5c.1.2.1.5.1.7 0 1.5-1.2 2.6-2.6 2.6-1.1 0-2-.6-2.4-1.6a2.58 2.58 0 0 0 2.5 1.9c1.5 0 2.6-1.2 2.6-2.6 0-.3-.1-.6-.2-1z" fill="#f6b4ca"/><path d="M39.5.2s-.2 22.8-23 21.6c1-8.8 3.1-12 3.1-12L30 1.3" fill="#fbd9e3"/><path d="M39.5.2s-19.7 3.2-23 21.5c0 .1-3.3-24.2 23-21.5z" fill="#eb80a8"/><path d="M17.4 13.1S20.5 1.2 33.2.8c0 .1-11 .8-15.8 12.3z" fill="#f6b4ca"/><path d="M17.1 21.4s12.6-.4 16.5-8.2c-.1 0-9.3 7.3-16.5 8.2z" fill="#fdebf1"/><path d="M.1 4.9S-2 22 15.2 21.3c.1-6.6-1.1-9.1-1.1-9.1l-7-6.4" fill="#fbd9e3"/><path d="M.1 4.9s14.5 2.5 15.1 16.4c0 .1 5-18.2-15.1-16.4z" fill="#eb80a8"/><path d="M7.4 5.8s6.6 1.7 7.9 9.1c0 0-1.4-5.2-7.9-9.1z" fill="#f6b4ca"/><path d="M14.5 20.9s-8.2-.3-10-5.5c.1.1 5.5 4.9 10 5.5z" fill="#fdebf1"/><path d="M15.2 22.7S1.7 20.9.5 34.5c5.3.2 7.4-.8 7.4-.8l5.9-5.5" fill="#cae4ec"/><path d="M15.2 22.7S11.6 34.2.5 34.5c-.1 0 14 4.1 14.7-11.8z" fill="#0091b3"/><path d="M6 34.6s5.7-.4 8.2-6.9c.1-.1-3.4 5.9-8.2 6.9z" fill="#8ac7d8"/><path d="M14.3 22.9s-6.7.4-8.6 4.5c.1 0 4.9-4 8.6-4.5z" fill="#e7f3f6"/><path d="M24.6 33.3s2-10.2-8.3-10.5c-.4 4 .3 5.5.3 5.5l3.9 4.2" fill="#ddf0b4"/><path d="M24.6 33.3s-8.5-2.1-8.3-10.5c0-.1-3.7 10.7 8.3 10.5z" fill="#93d500"/><path d="M16.2 27.3s.5 4.6 5.9 5.8c0 0-5-2-5.9-5.8z" fill="#c3e67e"/><path d="M17.1 23.2s4.3.5 5 3.3c0 0-2.6-2.8-5-3.3z" fill="#f0f8de"/><path d="M39 28.2h.2c1 0 1.7-.5 1.8-1.2l.4-2.5 1-4.8.2-.8.5 2.7c.1.3.1.6.2.9.1.6.2 1.3.4 1.8l.3 2.2c0 .4.6.8 1.2.8.7 0 1.3-.3 1.5-.7l.3-.5c.1-.2.1-.3.2-.4 0-.1.1-.2.2-.3 0 0 0-.1.1-.1 0-.1.1-.2.1-.2.1-.2.2-.4.4-.7l1.2-2.1.9-1.6 1.2-2.1-1.3 6.2-.5 2.2c-.1.2 0 .5.2.7.2.3.6.4 1 .4h.6c.9 0 1.5-.5 1.5-1.2v-.4c.1-1.1.6-3.7 1.4-8l.8-3.4c.1-.2 0-.5-.1-.7-.2-.3-.6-.5-1-.5h-1c-1 0-1.8.4-2.2 1l-1.2 2.3-2.5 4.2c-.1.1-.2.2-.3.5v.1c-.2.4-.4.6-.4.8-.1-.3-.1-.6-.2-.9 0-.3-.1-.5-.2-.9l-.5-2.6-.4-3c-.1-.7-.8-1.2-1.8-1.2h-1.1c-.9 0-1.6.5-1.6 1.1 0 1-.3 2.6-.8 4.9l-1 4.3-.8 2.7c-.1.2 0 .5.1.7.3.1.6.3 1 .3zm19.8.3h0a9.49 9.49 0 0 0 2-.2c.7-.2 1.2-.6 1.4-1.2 0-.2 0-.3-.1-.5s-.4-.3-.7-.3c-.1 0-.3 0-.4.1-.4.2-1 .4-1.7.4h0c-1.6 0-1.8-1.5-1.8-2.3v-.6c1.6-.1 2.8-.2 4-.8.4-.2 1.5-.8 2.1-1.7.5-.7.7-1.5.7-2.1 0-1.6-1.3-2.6-3.3-2.6-.7 0-3.1.2-4.8 2.3-.3.4-1.8 2.3-1.8 4.8 0 2.2.5 4.6 4.4 4.7zm-1.3-5.4c.2-1.5.7-2.9 1.3-3.6.8-1 1.5-1.1 1.7-1.1.5 0 .8.4.8 1.1s-.3 1.4-.8 1.9c-1 .9-2 1.5-3 1.7zm7.1 4.5c.4.4 1.1.7 2 .7h0c.4 0 .7 0 1-.1.8-.1 1.3-.5 1.5-1 .1-.2 0-.4-.1-.5-.1-.2-.4-.3-.6-.3-.1 0-.2 0-.3.1-.1 0-.1 0-.2.1h0c-.3.1-.4.1-.7.1-.1 0-.2-.2-.3-.4-.1-.4 0-1 .1-1.7h0v-.2c0-.2.1-.4.1-.6v-.2c.1-.5.2-1 .2-1.4.1-.4.1-.8.2-1.2.1-.8.3-1.7.5-2.7 0-.2.1-.5.1-.7 0-.1 0-.2.1-.3 0-.1.1-.3.1-.4h0c.1-.8.3-1.4.4-1.9h0c0-.2-.1-.5-.2-.6-.2-.2-.6-.4-.9-.4h-.3c-.3.1-.4.1-.6.1-.7.1-1.1.7-1.1 1.2 0 .6-.2 1.9-.5 4.1l-.4 2.6-.2 1.2v.6c0 .1 0 .2-.1.3h0c0 .1 0 .3-.1.5v.1c-.1.3-.1.8-.1 1.2-.2.7 0 1.3.4 1.7zm6.5.6c.9 0 1.7-.5 1.8-1.2l.8-4.1c.5-1.9 1-2.8 1.3-3.1.6-.6 1.3-1 1.9-1s.9.4.9 1.2c0 .2 0 .6-.1 1l-.7 4-.1.5-.3 1.6c-.1.2 0 .5.2.7.2.3.7.5 1.2.5.9 0 1.6-.5 1.7-1.2v-.2c0-.4.1-.8.2-1.2l.8-4.4c.2-1.1.2-1.5.2-2 0-1.7-1.6-2.3-3-2.3-.9 0-1.7.2-2.4.7-.3.2-.5.4-.8.6 0-.2.1-.3.1-.5 0-.3.1-.5.1-.8l.2-1c.1-.4.1-.7.2-1.1 0-.2 0-.4-.1-.6-.2-.3-.7-.5-1.1-.5h-.2c-.2 0-.4.1-.6.1l-.3.1c-.8.1-1.1.7-1 1.2 0 .6-.1 1.5-.5 3.7l-1 5.5-.6 2.7c-.1.2 0 .5.1.7.3.2.7.4 1.1.4zm16.6-11.3c-2.6 0-4.2 1.3-5.1 2.5-1 1.3-1.6 3.2-1.6 4.9 0 1.8.7 2.7 1.3 3.2.8.7 1.9 1 3.1 1 4.6 0 6.7-4.5 6.7-7.7 0-.5 0-1.7-1.1-2.8-.7-.7-1.9-1.1-3.3-1.1zm-2.2 10c-1 0-1.6-.8-1.6-2.4 0-1.3.6-6 3.4-6 .5 0 .9.3 1.1.5.5.5.5 1.3.5 1.7.1.1-.1 6.2-3.4 6.2zm14.2-9.6c-.2-.3-.5-.4-.8-.4-.1 0-.2 0-.4.1-.5.2-.9.4-1.2.6s-.6.4-.8.7v-.1c0-.2-.1-.4-.2-.5a1.53 1.53 0 0 0-1-.4H95c-.1 0-.3 0-.5.1-.8.1-1.2.7-1.1 1.2 0 .5-.1 1.2-.2 2.2l-1 5.4c0 .3-.1.6-.2.9-.1.2 0 .5.1.7.2.3.7.5 1.2.5h.1c.8 0 1.5-.5 1.6-1.2.1-1.2.5-3.8.8-4.9.6-2.3 1.8-2.8 2.2-2.9l.8-.3c.4-.2.8-.5 1-.9.1-.3 0-.5-.1-.8z" fill="#0091b3"/><path d="M41 15.3s-.9 7.7-2.5 11.3c-.2.4.3 2.3 1.4-3.5s1.5-9.3 1.1-7.8zm17 2.6s-2.9 1.7-3.3 5.5 2.7 4.5 2.7 4.5-5.7-4 .6-10zm27-.2s-2.3 1-3.3 4.6c-1.1 3.6 1.4 5.5 2.3 5.6 0 0-.8-.4-1.4-1.5-1-1.9-1.6-5.2 2.4-8.7zm8.8.5s-.5 5.1-1.4 8.8c0 0 1.7-4 1.4-8.8zm-27.6-3.4l-1.6 10.9c-.1.3.4 2.2 1-3.3l.6-7.6zm6.5 0l-2.3 12.1c-.1.3.4 2.2 1.1-3.3l1.2-8.8z" fill="#8ac7d8"/><path d="M107.7 18.6c.2 0 .4 0 .7.1h0c.2.1.4.1.7.1.7 0 1-.3 1-.5.1-.2.1-.5 0-.8s-.4-.4-.7-.5c-.4-.1-.9-.1-1.4-.1-4.7 0-7.2 3.6-7.2 7.1 0 2.8 2 4.5 5.2 4.5.4 0 .8 0 1.1-.1.7-.1 1.3-.5 1.5-1 .1-.2 0-.4-.1-.5-.1-.2-.4-.3-.7-.3h-.3c-.4.1-.8.2-1.1.2-.5 0-1-.1-1.4-.4-.7-.4-1-1.3-1-2.6 0-2.5 1.3-5.2 3.7-5.2zm2.6 8.9c.8.7 1.9 1 3.1 1 4.6 0 6.7-4.5 6.7-7.7 0-.5 0-1.7-1.1-2.8-.7-.7-1.8-1.1-3.3-1.1-2.6 0-4.2 1.3-5.1 2.5-1 1.3-1.6 3.2-1.6 4.9s.7 2.6 1.3 3.2zm3.3-.6c-1 0-1.6-.8-1.6-2.4 0-1.3.6-6 3.4-6 .5 0 .9.3 1.1.5.5.5.5 1.3.5 1.7 0 .1-.1 6.2-3.4 6.2zm18.5-3.4c-.1.3-.1.7-.2 1 0 .3-.1.5-.1.8-.1.6-.3 1.3-.4 1.7-.1.2 0 .5.2.7.2.3.6.4 1 .4h.2c.9 0 1.6-.6 1.7-1.2l.4-2.9c0-.3.1-.6.2-.8.1-.3.1-.6.2-.8 0-.2.1-.4.1-.6.1-.4.1-.7.2-1l.2-1.7c0-1.6-1.4-2.2-2.6-2.2-1.4 0-2.3.9-2.4 1-.3.3-.6.7-.9 1.1-.2-.8-.8-2.1-2.5-2.1-1.2 0-2.1.7-2.4 1l-.2.2a.76.76 0 0 0-.2-.4c-.2-.3-.7-.4-1.1-.4h-.9c-.7.1-1 .6-1 1.3 0 .4 0 1-.2 1.7-.1.8-.4 2.1-.6 3.3l-.3 1.7v.3c-.1.7-.2 1-.3 1.5 0 .2 0 .5.2.7.2.3.6.5 1 .5h.2c.9 0 1.6-.5 1.6-1.2.1-1.2.6-4.4 1-5.7.6-1.5 1.5-2.5 2.4-2.5.3 0 .4.1.4 1.1 0 .5-.1 1.4-.4 2.7 0 .2-.1.5-.1.8 0 .2-.1.4-.1.6h0l-.6 2.9c-.1.2 0 .5.2.7.2.3.7.5 1.2.5.9 0 1.6-.5 1.7-1.2.1-1.2.5-4 1-5.6.7-1.9 1.8-2.6 2.5-2.6.1 0 .3 0 .3 1.1 0 .3-.1 1-.2 1.8-.2.7-.3 1.2-.4 1.8z" fill="#93d500"/><path d="M147 14.5c-.2-.3-.5-.5-.9-.6-.6-.1-1.3-.2-2-.2-4 0-6.2 2.4-6.2 4.6 0 1.5 1.2 2.3 2.2 3l1.1.7c1.2.7 1.7 1.1 1.7 2 0 1.5-1.2 2.6-3 2.6-.4 0-.9-.1-1.5-.2h0c-.3-.1-.7-.2-1-.2-.6 0-1 .2-1.1.6-.1.3-.1.6.1.9s.5.5.9.6c.6.1 1.2.2 1.9.2 1.6 0 3.2-.4 4.3-1 .6-.4 2.7-1.9 2.7-3.9 0-1.6-1.4-2.4-2.5-3l-1.2-.7c-.7-.4-1.4-.8-1.4-2 0-.6.5-2.4 2.7-2.4.8 0 1.3.2 1.6.4h0c.3.1.6.1.8.1.3 0 .6-.1.8-.2.2-.2.4-.8 0-1.3zm9.5 2.6c-.1 0-.2 0-.4.1l-.3.1c-.6-.2-1.2-.4-2.1-.4-1.3 0-2.6.4-3.6 1.1-2.8 2.3-3.5 5.9-3.5 6.9 0 2.4 1.8 3.5 3.4 3.5 1.4 0 2.4-.9 3.2-1.9 0 .2-.1.5-.1.7s.1.4.2.6c.3.3.7.4 1.1.4h.1c.7 0 1.5-.4 1.5-1s.2-2 .4-3.5l.4-1.9.7-3.4v-.1c0-.2 0-.5-.2-.7-.2-.3-.5-.5-.8-.5zm-3.1 1.4c.4 0 .8.1 1.1.2l-.5 2.6c-.3 2.1-.7 3.1-1.2 3.8-.7 1.1-1.5 1.2-1.9 1.2-1 0-1.2-1.2-1.2-2.2 0-1.1.6-5.6 3.7-5.6zm13.1-1.3c-.8.1-1.3.7-1.3 1.4 0 .5-.1 1.3-.3 2.4-.3 1.4-.7 3.3-1.2 4.1l-.1.2c-.8 1.2-1.8 1.2-2 1.2-.6 0-.9-.4-.9-1.2 0-.4.1-.9.3-1.9l.6-2.9v-.3c.1-.6.2-.9.4-1.5l.1-.3c0-.2 0-.4-.2-.6-.3-.3-.8-.5-1.2-.5h-.5c-.2 0-.4.1-.5.2h0c-.5.3-.6.9-.6 1.1 0 .3-.1.6-.1.9l-1 5.3-.2 1.3c0 1.6 1.5 2.3 3 2.3 0 0 1.5 0 2.5-.7l.6-.6c0 .2.1.4.3.6.3.3.7.5 1.2.5s.9-.2 1.2-.5c.2-.2.3-.4.3-.6v-.2c0-.8.2-2.1.7-4.8l.9-4.1c0-.2 0-.4-.2-.5-.2-.3-.7-.5-1.1-.4-.6 0-.7.1-.7.1zm-1-3.9c-1.1 0-1.4.5-1.5 1.1-.1.4-.4.8-.9 1.1-.2.2-.3.4-.3.6 0 .1.1.2.4.2a3.86 3.86 0 0 0 2-.6h0c.9-.7 1.1-.9 1.3-1.3.1-.3 0-.5-.1-.7-.2-.2-.5-.4-.9-.4zm13.7 3c0-.2.1-.4.1-.7v-.3c0-.2.1-.4.1-.5h0c0-.2 0-.4-.1-.5-.2-.3-.6-.4-1.1-.4h-.7c-.8.1-1.2.7-1.2 1.3 0 .4 0 .9-.2 1.7-.3-.1-.6-.1-1-.1-1.9 0-3.7.9-4.9 2.3-1.7 2.2-2.1 4.9-2.1 5.6 0 2.4 1.7 3.5 3.5 3.5 1.3 0 2.2-.7 2.9-1.6v.2c0 .3 0 .5.2.7.3.3.8.5 1.3.5.8 0 1.4-.5 1.4-1.2 0-.8.2-2.1.4-3.1h0c0-.2.1-.4.1-.5l1.1-5.9c0-.2.1-.4.1-.6v-.3c.1.1.1 0 .1-.1zm-6.8 10.1c-.7 0-1.2-.9-1.2-2.2 0-.9.7-5.7 3.8-5.7.3 0 .6.1.9.1-.7 3.8-1 5.1-1.5 6.1-.8 1.6-1.7 1.7-2 1.7zm13.3-9.6c-.7 0-3.1.2-4.8 2.3-.3.4-1.8 2.3-1.8 4.8 0 2.1.6 4.4 4.5 4.6h0a9.49 9.49 0 0 0 2-.2c.7-.2 1.2-.6 1.4-1.2 0-.2 0-.3-.1-.5s-.4-.3-.7-.3c-.1 0-.3 0-.4.1-.4.2-1 .4-1.7.4h0c-1.6 0-1.8-1.5-1.8-2.3v-.6c1.6-.1 2.8-.2 4-.8.4-.2 1.5-.8 2.1-1.7.5-.7.7-1.5.7-2.1 0-1.5-1.3-2.5-3.4-2.5zm-3.4 6.2c.2-1.5.7-2.9 1.3-3.6.8-1 1.5-1.1 1.7-1.1.5 0 .8.4.8 1.1s-.3 1.4-.8 1.9c-1 .9-2 1.6-3 1.7z" fill="#eb80a8"/><path d="M182.8 18.1s-2.9 1.7-3.3 5.5 2.7 4.5 2.7 4.5-5.7-4.1.6-10z" fill="#f8c0d2"/><path d="M104.4 18.2s-2.8 1.6-3.1 5.3c-.3 3.6 2.6 4.3 2.6 4.3s-5.5-3.9.5-9.6zm8.4-.3s-2.2 1-3.2 4.4c-1 3.5 1.3 5.4 2.3 5.5 0 0-.8-.4-1.4-1.5-1-1.8-1.6-5 2.3-8.4zm9.4.4s-.5 5.1-1.4 8.8c-.1.1 1.6-3.9 1.4-8.8z" fill="#c3e67e"/><path d="M159.3 18.3l-1.2 8c-.1.3.4 1.6.8-2.4l.4-5.6zm-8.4-.4s-2.2 1.1-3.4 4.6c-1.3 4.1 1.4 5.4 2.4 5.5 0 0-.9-.4-1.6-1.5-1-1.8-1.4-5.2 2.6-8.6zm21.4 0s-2.2 1.1-3.4 4.7c-1.3 4.1 1.4 5.4 2.4 5.5 0 0-.9-.4-1.6-1.5-1-1.8-1.4-5.3 2.6-8.7zm-31.1-3.5s-5.1 2.4-1.9 6c0 0-2.4-3.3 1.9-6zm.1 12.5s3.7-1.5 1.1-4.6c0 0 3.6 3.2-1.1 4.6z" fill="#f8c0d2"/></svg>