<svg xmlns="http://www.w3.org/2000/svg" width="853.333" height="853.333" viewBox="0 0 640 640" preserveAspectRatio="xMidYMid meet" xmlns:v="https://vecta.io/nano"><path d="M546.9 37.4c-.2.2-5.1.7-10.9 1.1s-11.4.9-12.5 1.1-4.2.6-7 .9c-4.4.5-15.6 2.3-25 4.1-3.9.7-12.6 2.7-17.7 4-1.3.3-3.2.7-4.3.9-1.8.3-18.2 5.3-23 7-15.2 5.4-35.1 14.5-47.5 21.6-11.7 6.6-35 23.3-35 25 0 .5-.4.9-1 .9-2.1 0-19.2 17-30.8 30.6-4.4 5.3-15.9 21.4-20.4 28.8-3.6 6-17.8 33.9-17.8 35 0 .4-.9 2.5-2 4.9-2.7 5.9-7.7 19.9-10.1 28.2-2.7 9.1-5 17.6-5.4 19.5-2.3 10.6-6.5 32.6-7 36.5l-1 8c-2 13.3-2.9 28.8-2.9 51.5-.1 27.4.9 41 3 42.7 1.1.8 9.4 1 30.2.7l32.7-.8c2.2-.3 7.2-.8 11-1.1 3.9-.4 7.9-.9 8.9-1.1 1.1-.2 4-.6 6.5-.9s5.6-.7 6.7-.9c1.2-.3 3.9-.7 6-1.1l5.9-1.1c10.1-1.7 30.4-7 42.2-11 31.8-10.6 56.1-23.1 82.8-42.4 9.2-6.6 9.9-7.2 19.5-15.5 6.4-5.6 22.7-22 28.3-28.5l5.6-6.5c1.5-1.7 3.1-3.9 8.3-11 .4-.5 1.8-2.4 3.1-4 11.2-14.4 28.8-45.7 38.1-68l5.5-13c4.3-9.9 16.8-50 17.6-56.5.1-.8.4-2.4.8-3.5.3-1.1.9-3.4 1.2-5 .3-1.7.9-4.1 1.2-5.5s.7-3.4.8-4.5c.2-1.1.4-2 .5-2 .2 0 .6-2.4 1.4-7 .2-1.7.5-3 .6-3s.3-1.1.5-2.5l.9-6.5 1.1-8c1.6-10.8 2.8-23.7 2.9-32.3l.1-7.4-8.5-.4c-4.7-.3-9.6-.7-11-1-2.8-.7-72.5-1.6-73.1-1zM247.5 65.2c-2.7.4-5.8 1.3-6.7 1.8-1 .6-2.7 1-3.8 1s-2 .3-2 .8c0 .4-1.7 1.6-3.7 2.7-5.5 2.9-13.7 11.8-16.9 18.2-3.7 7.6-4.6 11.5-5 20.8-.3 9.3 2 17.8 7.3 26 4.1 6.4 7.4 9.5 14.8 14 7.7 4.6 12.1 5.8 22 6 20.9.5 37.9-12.1 44.5-32.8 2.8-8.9 1.4-24.3-2.8-31.9l-3.4-5.9c-2.4-4.4-11.5-12.4-17.4-15.6-8.9-4.6-18.6-6.5-26.9-5.1zM27.7 114.6c-.1.1-5.1.4-11.2.8-14.6.8-14.8.9-15.3 3.7-1.3 7-.4 49.9 1.3 63.4l1 8 .9 6 1.1 6.5c1 6.3 1.1 6.4 3.5 17 1.2 5.2 2.5 9.9 2.8 10.5.4.5.8 1.9.9 3 .2 1.1.6 2.7 1 3.5.3.8.7 2 .8 2.6 1 4.5 7.8 21.1 13.2 32.1 10.1 20.7 21.2 36.2 36.8 51.8C70 329 76.1 334.6 77.9 336l6 4.6c18.5 15 56.9 31.4 84.1 36 1.4.2 3.6.7 5 1 2.4.5 6.1 1.1 13 1.9 1.9.2 4.5.6 5.7.9 8 1.7 52.8 2.6 54.3 1 .5-.5 1.1-2 1.4-3.4l1.1-5 1.1-5.5c.2-1.7.8-5.3 1.3-8 .5-2.8 1.2-7.5 1.5-10.5l1.2-9.3c1.3-10 1.9-38.7.9-52.2-.7-11.2-2.8-25-5-34.5-.1-.3-.7-3.2-1.4-6.5-1.1-5.4-5.7-19.7-8-25-1.6-3.7-11.1-23-12.4-25-9.2-14.9-27.1-34.6-38.7-42.7-6.8-4.8-16.1-10.8-16.7-10.8-.4 0-1.4-.6-2.2-1.3-6.2-5.1-41.5-18.1-55.6-20.3-1.6-.3-4.3-.9-6-1.4-2.9-.8-16.3-2.8-23.5-3.5l-10.5-1c-6.3-.6-46.2-1.4-46.8-.9zm182 289c-.1.1-5.1.5-11 .8-5.9.4-11.3.9-12 1.1-1.2.4-7.2 1.3-13.2 2-1.7.2-6.2 1.1-10 2l-9.3 2.1c-3.8.8-26.4 8.3-30.2 10.1l-7.2 3.5c-2.1 1.1-3.8 1.6-3.8 1.1 0-.4-.4-.3-.8.2-.4.6-2 1.7-3.7 2.5-27 13.4-53.5 38.1-69.7 65.1C33.2 503.4 26 518.4 23 527l-2 5.5c-1.1 2.7-5 15.6-5.5 18.6-.3 1.3-.7 3.5-1.1 4.9l-1.5 7c-2.1 9.9-2.7 13.5-3.4 20.5-.2 2.2-.6 5.7-.9 7.7-.3 2.2 0 4 .7 4.6 1.6 1.3 8.6 2.8 21.2 4.8a107.9 107.9 0 0 1 6 .9c15.2 2.4 51 2.4 62.5.1 1.4-.3 4.1-.8 6-1 3.6-.6 7-1.2 10.5-2.1 8.9-2.2 13.6-3.5 17.5-4.9 2.5-1 5-1.8 5.5-2 10.4-3.1 31.5-15.2 42.5-24.5 23.4-19.7 41-46.7 51.1-78.6 1.1-3.3 2.2-6.7 2.6-7.5.3-.8.6-1.8.5-2.2-.1-.3.6-3 1.4-6 .9-2.9 1.8-6.2 2-7.3s.6-3.1.9-4.5c3-14.3 5.1-30.7 6.1-46.6l.7-10-2.4-.2c-4.6-.2-33.9-.8-34.2-.6zm53.9 4.3c-1.9 6-3.7 13.1-4.1 15.6l-1.5 8c-2.2 11-3.1 37.2-1.7 48 1.1 8.1 3.8 20.9 4.9 22.8.5 1 1.1 2.6 1.3 3.6.3 1.9 4.1 10.7 5.6 13.1.5.8 1.3 2.4 1.8 3.5 2.6 5.8 21.7 27.5 24.2 27.5.4 0 1.4.6 2.1 1.3 5.8 5.7 26.8 15.2 42.3 19.1 7.5 1.9 10.7 2.5 21.5 4 12 1.7 37.8 2.7 38.5 1.5 1.2-1.9 1.9-13.4 1.9-31.4s-.3-23.3-1.9-31.5c-.3-1.4-.7-3.9-1-5.6-.8-5.1-5.4-20.3-7.5-25-1.1-2.3-2-4.8-2-5.4s-2.5-5.2-5.5-10.2l-5.5-9.4c0-.9-4.2-5.5-12.6-13.8-9.5-9.5-14.5-13.6-16.3-13.6-.6 0-1.1-.4-1.1-.8 0-2.6-30.1-15.4-41.5-17.7-14.8-3-23.5-4.2-36.5-4.9-3.7-.2-5 .1-5.4 1.3z"/></svg>